<?xml version="1.0" encoding="UTF-8" standalone="no"?> <!-- Generator: Adobe Illustrator 19.0.0, SVG Export Plug-In . SVG Version: 6.00 Build 0) --> <svg xmlns:dc="http://purl.org/dc/elements/1.1/" xmlns:cc="http://creativecommons.org/ns#" xmlns:rdf="http://www.w3.org/1999/02/22-rdf-syntax-ns#" xmlns:svg="http://www.w3.org/2000/svg" xmlns="http://www.w3.org/2000/svg" xmlns:sodipodi="http://sodipodi.sourceforge.net/DTD/sodipodi-0.dtd" xmlns:inkscape="http://www.inkscape.org/namespaces/inkscape" id="Layer_1" x="0px" y="0px" viewBox="0 0 1185.6 134.8" style="enable-background:new 0 0 1185.6 134.8;" xml:space="preserve" sodipodi:docname="LMH Long.svg" inkscape:version="0.92.4 (5da689c313, 2019-01-14)"><metadata id="metadata3749"></metadata><defs id="defs3747"></defs> <style type="text/css" id="style3732"> .st0{fill:#010101;} .st1{fill:#EA482D;} </style> <g id="XMLID_15_"> <path id="XMLID_13_" class="st0" d="M184.3,71.8c-6.1,7.2-12.2,14.4-18.5,21.7c-6.3-7.3-12.5-14.6-18.7-21.9c-0.1,0-0.2,0-0.3,0.1 c0,0.6,0,1.1,0,1.7c0,17.4,0,34.8-0.1,52.3c0,2.2,0.3,2-1.9,2c-47,0-94,0-141-0.1c-0.3,0-0.6,0-0.9,0c-0.7,0-1-0.2-0.9-0.9 c0-0.4,0-0.8,0-1.2C2,91.3,2,57.2,2,23.1C2,20.7,1.7,21,4.2,21c15.5,0.1,31,0.1,46.5,0.2c1.6,0,1.5-0.2,1.5,1.5 c0,22.8,0,45.6,0,68.4c0,1.3,0,2.7,0,4c0,1.5,0,1.5,1.6,1.5c8.2,0,16.5,0,24.7,0c5.5,0,11,0,16.5,0c1.3,0,1.3,0,1.3,1.3 c0,8.7,0,17.3,0,26c0,0.6,0,1.1,0,1.7c0.6-0.6,0.4-1.3,0.4-1.9c0-28.4,0-56.7,0-85.1c0-7.4,0-14.7,0-22.1c0-0.4,0-0.7,0-1.1 c-0.1-1,0.4-1.2,1.2-1.1c0.2,0,0.4,0,0.5,0c15.1,0.1,30.3,0.2,45.4,0.2c0.9,0,1.5,0.3,2.1,1c6.2,7.3,12.4,14.6,18.6,21.9 c0.3,0.4,0.7,0.8,1,1.1c0.6-0.3,0.9-0.8,1.3-1.2c9.4-11,18.8-22.1,28.2-33.1c0.8-0.9,1.5-1.2,2.7-1.2c11.7,0,23.4,0,35.1,0 c0.4,0,0.8,0,1.2,0c0.5,0,0.7,0.3,0.7,0.8c0,0.5,0,1.1,0,1.6c0,13.2,0.1,26.3,0.1,39.5c0,0.3,0,0.6,0,0.9c-0.1,0.8,0.2,1.1,1.1,1.1 c7.7,0,15.4,0,23.2,0c1.1,0,1.1,0,1.1-1.6c0-10,0.1-20,0.1-30c0-3.6,0-7.2,0-10.9c0-1.3,0-1.3,1.3-1.3c15.8,0,31.7,0,47.5,0.1 c1.3,0,1.3,0,1.3,1.4c0,0.3,0,0.6,0,0.9c0,40,0,80,0,120c0,2.6,0.3,2.2-2.2,2.2c-15.3,0-30.6,0-46,0c-0.4,0-0.8,0-1.2,0 c-0.7,0-1-0.3-0.9-0.9c0-0.4,0-0.8,0-1.2c0-15.1,0-30.2,0-45.3c0-2.2,0.2-1.9-2-1.9c-7.2,0-14.5,0.1-21.7,0.1 c-1.9,0-1.7-0.2-1.7,1.7c0,15.1,0,30.3,0,45.4c0,2.1,0,2.1-2.2,2.1c-15.3,0-30.6,0-46-0.1c-0.4,0-0.8,0-1.2,0 c-0.5,0-0.7-0.2-0.7-0.8c0-0.4,0-0.7,0-1.1c-0.1-13.6-0.2-27.1-0.2-40.7c0-3.9,0.1-7.7,0.2-11.6c0-0.5,0-1,0-1.5 C184.6,71.9,184.5,71.8,184.3,71.8z"></path> <path id="XMLID_12_" class="st1" d="M475.2,68.2c0.1,30.7-24.9,56.6-56.7,56.6c-30.7,0-56.6-24.7-56.6-56.7 c0-31.9,25.9-56.7,56.7-56.6C450.4,11.5,475.4,37.5,475.2,68.2z"></path> <path id="XMLID_28_" class="st0" d="M613.7,123.4c-1,0-1.7,0-2.4,0c-9.1,0-18.2,0-27.4,0c-1.3,0-1.9-0.3-2.5-1.5 c-6-12.7-12-25.3-18-38c-0.6-1.2-1.2-1.7-2.6-1.6c-2.1,0.1-4.2,0.1-6.3,0c-0.9,0-1.1,0.3-1.1,1.1c0,4.3,0,8.7,0,13 c0,8.5,0,17.1,0,25.6c0,1.5,0.1,1.4-1.4,1.4c-8.1,0-16.1,0-24.2,0c-1.7,0-1.5,0.1-1.5-1.5c0-13.7,0-27.5,0-41.2c0-22,0-44,0-65.9 c0-2.1-0.3-1.9,1.8-1.9c13.7,0,27.4,0,41,0c6.9,0,13.6,1,19.8,4.3c10.6,5.6,16.7,14.5,18.4,26.3c1.2,8.4-0.4,16.2-5.2,23.2 c-2.9,4.2-6.7,7.5-11.1,10c-1.2,0.7-1.2,0.7-0.6,2c7.4,14.3,14.8,28.6,22.2,42.9C613,122.1,613.3,122.7,613.7,123.4z M562.4,37.4 C562.4,37.4,562.4,37.4,562.4,37.4c-2.6-0.1-5.3,0-7.9-0.1c-0.8,0-1.1,0.3-1.1,1.1c0,6.7,0,13.3,0,20c0,1.2,0,1.2,1.3,1.2 c4.7,0,9.5,0,14.2,0c0.5,0,1.1-0.1,1.6-0.1c7.2-0.7,11.7-7.7,9.5-14.5c-1.4-4.3-5.2-7.3-9.8-7.6C567.7,37.3,565.1,37.4,562.4,37.4z "></path> <path id="XMLID_25_" class="st0" d="M988.2,123.3c-0.6,0.3-1.1,0.2-1.6,0.2c-9.4,0-18.7,0-28.1,0c-1.3,0-1.9-0.5-2.4-1.6 c-6-12.7-12.1-25.4-18.1-38.1c-0.5-1.1-1-1.5-2.2-1.4c-2.2,0.1-4.4,0.1-6.7,0c-0.8,0-1.1,0.2-1,1c0,0.5,0,0.9,0,1.4 c0,12.3,0,24.7,0,37c0,1.9,0.2,1.7-1.7,1.7c-7.9,0-15.8,0-23.7,0c-0.4,0-0.7,0-1.1,0c-0.5,0-0.7-0.2-0.7-0.7c0-0.4,0-0.8,0-1.2 c0-35.5,0-71.1,0-106.6c0-2.3-0.3-2,1.9-2c13.7,0,27.4,0,41,0c6.7,0,13.3,1,19.3,4.1c10.9,5.6,17.1,14.6,18.8,26.6 c1,6.8,0.1,13.4-3.1,19.6c-2.9,5.6-7.1,9.8-12.4,13c-0.4,0.2-0.8,0.5-1.2,0.7c-0.8,0.3-0.8,0.8-0.4,1.5c1.9,3.6,3.8,7.2,5.7,10.9 c5.6,10.8,11.2,21.7,16.8,32.5C987.8,122.2,988,122.7,988.2,123.3z M928.2,48.5c0,3.3,0,6.5,0,9.8c0,1.3,0,1.3,1.4,1.3 c3.1,0,6.2,0,9.3,0c2.2,0,4.3,0.1,6.5-0.1c6.4-0.6,10.9-6.5,9.8-12.9c-0.9-5.3-5.1-9.1-10.6-9.2c-5.1-0.2-10.2,0-15.3-0.1 c-0.9,0-1.2,0.2-1.2,1.2C928.2,41.8,928.2,45.2,928.2,48.5z"></path> <path id="XMLID_22_" class="st0" d="M1002.2,67.9c0-17.7,0-35.4,0-53.1c0-2.2-0.3-1.9,2-1.9c12.7,0,25.5,0,38.2,0 c6.8,0,13.4,0.8,19.7,3.6c12,5.4,19,14.7,21.5,27.5c0.9,5,1,10,1,15c0,7.2,0,14.4,0,21.6c-0.1,5.7-0.4,11.4-2.2,16.8 c-4.3,12.9-13.1,21.1-26.3,24.6c-4,1.1-8.1,1.5-12.3,1.5c-13.3,0-26.5,0-39.8,0c-0.3,0-0.6,0-0.9,0c-0.6,0-0.9-0.2-0.8-0.8 c0-0.4,0-0.8,0-1.2C1002.2,103.6,1002.2,85.8,1002.2,67.9z M1029.4,68.2c0,9.9,0,19.8,0,29.6c0,1.5-0.1,1.4,1.4,1.4 c3.4,0,6.8,0,10.2,0c1.6,0,3.2,0,4.7-0.4c5.5-1.2,9.1-4.6,10.5-10.1c0.7-2.6,0.8-5.3,0.9-8c0.2-6.1,0.1-12.2,0.1-18.2 c0-4.6-0.1-9.1-0.8-13.6c-0.8-5.6-4.7-9.8-10.2-11.2c-2.3-0.6-4.6-0.6-7-0.6c-2.9,0-5.8,0-8.8,0c-0.8,0-1.2,0.2-1.1,1.1 c0,0.3,0,0.7,0,1.1C1029.4,48.9,1029.4,58.5,1029.4,68.2z"></path> <path id="XMLID_19_" class="st0" d="M882.2,68.3c0.1,4.9,0.1,9.8-0.2,14.7c-0.3,5.9-1.1,11.8-3.3,17.3c-4,9.9-11.2,16.8-20.9,20.8 c-11.5,4.8-23.5,4.9-35,0.1c-13.2-5.5-21.3-15.5-23.6-29.9c-0.7-4.7-1-9.5-1.1-14.3c0-7.3-0.1-14.6,0.1-21.9 c0.1-6,0.8-11.9,2.9-17.6c4.9-12.8,14.3-20.8,27.4-24.1c9.6-2.4,19.3-2.2,28.6,1.7c13.1,5.5,21.4,15.2,23.9,29.5 c0.8,4.7,1.1,9.5,1.1,14.3C882.3,62,882.2,65.1,882.2,68.3z M855,68.1c0-3,0.1-6.1,0-9.1c-0.2-4.1-0.3-8.3-1.3-12.3 c-1.2-5-4.1-8.3-9-9.8c-1.9-0.6-3.8-0.7-5.7-0.5c-5.9,0.4-10.3,3.9-11.9,9.6c-0.9,3.2-1.2,6.5-1.4,9.9c-0.3,5.1-0.3,10.3-0.3,15.4 c0.1,5.4,0.2,10.9,1,16.3c1.1,7.3,5.2,11.6,12.2,12.6c6.8,0.9,13-3.1,14.9-9.7c0.5-1.6,0.7-3.2,0.9-4.8 C855.1,79.8,855.2,73.9,855,68.1z"></path> <path id="XMLID_3_" class="st0" d="M627.5,68.2c0-17.7,0-35.4,0-53.1c0-2.5-0.4-2.2,2.1-2.2c23.7,0,47.4,0,71,0c0.2,0,0.4,0,0.5,0 c1.6,0,1.5-0.2,1.5,1.5c0,7,0,14,0,21c0,1.9,0.2,1.7-1.7,1.7c-14.6,0-29.1,0-43.7,0c-0.4,0-0.7,0-1.1,0c-1.5,0-1.5-0.2-1.5,1.5 c0,5.2,0,10.4,0,15.6c0,1.4,0,1.4,1.5,1.4c12.5,0,25,0,37.5,0c2.2,0,2-0.3,2,1.9c0,6.8,0,13.6,0,20.3c0,2.2,0.2,1.9-1.8,1.9 c-12.4,0-24.8,0-37.2,0c-0.4,0-0.8,0-1.2,0c-0.5,0-0.7,0.2-0.7,0.7c0,0.9,0,1.8,0,2.6c0,4.9,0,9.7,0,14.6c0,1.6-0.2,1.5,1.5,1.5 c14.7,0,29.3,0,44,0c0.4,0,0.8,0,1.2,0c0.8-0.1,1.2,0.2,1.1,1.1c-0.1,0.8,0,1.6,0,2.5c0,6.4,0,12.9,0,19.3c0,1.4,0.1,1.4-1.4,1.4 c-24.1,0-48.2,0-72.3,0c-1.7,0-1.5,0-1.5-1.6C627.5,104,627.5,86.1,627.5,68.2z"></path> <path id="XMLID_2_" class="st0" d="M1175.7,25.1c-5.7,5.7-11.3,11.3-17,17c-0.1,0-0.3-0.1-0.4-0.2c-4.1-3.8-9-5.6-14.4-6 c-3.7-0.3-7.5-0.5-11.2,0.5c-3.8,1-6.7,3.1-7.9,7c-1.1,3.5,0,6.7,3,8.8c1.7,1.2,3.6,1.8,5.7,2.1c5.7,0.8,11.3,1.6,17,2.5 c3.9,0.6,7.6,1.8,11.2,3.4c7.2,3.4,12.1,8.9,14.2,16.6c1.9,6.7,2.3,13.6,0.8,20.5c-2.2,9.9-8.2,16.9-17,21.5 c-6.1,3.2-12.7,4.9-19.6,5.4c-8.9,0.6-17.7,0.1-26.4-2.2c-8-2.1-14.8-6.1-20.5-11.9c5.8-5.8,11.6-11.6,17.4-17.4 c5.3,4.7,12,6.5,19.1,7.2c4.1,0.4,8.2,0.5,12.2-0.4c1.3-0.3,2.5-0.6,3.7-1.2c3.9-1.8,5.8-5.2,5.3-9.5c-0.6-4.7-3.1-7.1-8.4-7.9 c-5-0.7-9.9-1.4-14.9-2.1c-5.1-0.8-10-2.1-14.6-4.5c-7.2-3.8-11.7-9.7-13.5-17.6c-1.6-7.3-1.6-14.6,0.9-21.8 c3.4-9.6,10.2-15.9,19.5-19.6c7-2.8,14.4-3.5,21.8-3.3c5.7,0.2,11.3,0.9,16.7,2.6C1164.9,16.7,1170.7,20.1,1175.7,25.1z"></path> <path id="XMLID_14_" class="st0" d="M790.6,24.1c-6.1,6.1-12,12-18,18c-0.7-0.6-1.4-1.3-2.2-2.1c-4.3-3.9-9.3-4.6-14.7-3.1 c-4.3,1.1-6.9,4.2-8.3,8.3c-0.8,2.3-1.2,4.8-1.3,7.2c-0.8,10.5-0.8,21,0,31.5c0.1,1.9,0.5,3.8,0.9,5.7c1.9,8.3,8.5,11.1,15.3,10.4 c3.7-0.4,6.6-2.1,9.2-4.6c1.4-1.3,1.4-1.3,2.7,0c5.2,5.2,10.3,10.3,15.5,15.5c1.2,1.2,1.1,1.2,0,2.2c-6.8,6.5-14.8,10.2-24.2,10.9 c-7.3,0.6-14.4,0.2-21.2-2.5c-14.1-5.7-22.8-15.9-25-31.2c-0.7-5.1-1-10.2-1-15.4c0-7.9-0.2-15.8,0.3-23.7 c0.4-5.9,1.4-11.7,3.9-17.1c3.8-8.1,9.9-14.1,17.8-17.9c12.3-5.9,25-6,37.7-1.1C783,17.2,787,20.5,790.6,24.1z"></path> </g> </svg> 